<svg width="271" height="126" viewBox="0 0 271 126" fill="none" xmlns="http://www.w3.org/2000/svg">
<rect x="0.00292969" width="76.2712" height="76.2712" fill="#C4C4C4"/>
<rect x="51.8674" y="48.8135" width="76.2712" height="76.2712" fill="#EAE463"/>
<path d="M89.0877 29.5871H83.2301V41.339H80.5942V15.7118H83.2301V27.2074H89.0877L97.7643 15.7118H100.693L91.1745 28.1593L101.242 41.339H98.1304L89.0877 29.5871ZM122.069 22.082V41.339H119.579V37.5315C118.798 38.8251 117.761 39.8135 116.468 40.4969C115.198 41.1803 113.758 41.522 112.148 41.522C110.341 41.522 108.706 41.1071 107.242 40.2773C105.777 39.4474 104.63 38.2881 103.8 36.7993C102.971 35.3105 102.556 33.6142 102.556 31.7105C102.556 29.8068 102.971 28.1105 103.8 26.6217C104.63 25.1329 105.777 23.9857 107.242 23.1803C108.706 22.3505 110.341 21.9356 112.148 21.9356C113.71 21.9356 115.113 22.2651 116.358 22.924C117.627 23.5586 118.664 24.4983 119.47 25.743V22.082H122.069ZM112.367 39.2156C113.71 39.2156 114.918 38.9105 115.992 38.3003C117.09 37.6657 117.944 36.7749 118.554 35.6278C119.189 34.4807 119.506 33.1749 119.506 31.7105C119.506 30.2461 119.189 28.9403 118.554 27.7932C117.944 26.6461 117.09 25.7674 115.992 25.1573C114.918 24.5227 113.71 24.2054 112.367 24.2054C111 24.2054 109.768 24.5227 108.67 25.1573C107.596 25.7674 106.741 26.6461 106.107 27.7932C105.497 28.9403 105.192 30.2461 105.192 31.7105C105.192 33.1749 105.497 34.4807 106.107 35.6278C106.741 36.7749 107.596 37.6657 108.67 38.3003C109.768 38.9105 111 39.2156 112.367 39.2156ZM136.374 32.7722H131.981V41.339H129.381V22.082H131.981V30.539H136.41L143.183 22.082H146.002L138.424 31.4176L146.551 41.339H143.476L136.374 32.7722ZM157.919 41.522C156.064 41.522 154.392 41.1071 152.903 40.2773C151.414 39.423 150.243 38.2515 149.389 36.7627C148.534 35.2739 148.107 33.5898 148.107 31.7105C148.107 29.8312 148.534 28.1471 149.389 26.6583C150.243 25.1695 151.414 24.0101 152.903 23.1803C154.392 22.3505 156.064 21.9356 157.919 21.9356C159.774 21.9356 161.446 22.3505 162.934 23.1803C164.423 24.0101 165.583 25.1695 166.412 26.6583C167.267 28.1471 167.694 29.8312 167.694 31.7105C167.694 33.5898 167.267 35.2739 166.412 36.7627C165.583 38.2515 164.423 39.423 162.934 40.2773C161.446 41.1071 159.774 41.522 157.919 41.522ZM157.919 39.2156C159.286 39.2156 160.506 38.9105 161.58 38.3003C162.678 37.6657 163.532 36.7749 164.143 35.6278C164.753 34.4807 165.058 33.1749 165.058 31.7105C165.058 30.2461 164.753 28.9403 164.143 27.7932C163.532 26.6461 162.678 25.7674 161.58 25.1573C160.506 24.5227 159.286 24.2054 157.919 24.2054C156.552 24.2054 155.32 24.5227 154.221 25.1573C153.147 25.7674 152.293 26.6461 151.659 27.7932C151.048 28.9403 150.743 30.2461 150.743 31.7105C150.743 33.1749 151.048 34.4807 151.659 35.6278C152.293 36.7749 153.147 37.6657 154.221 38.3003C155.32 38.9105 156.552 39.2156 157.919 39.2156ZM190.2 22.082V41.339H187.71V37.8244C187.027 38.9959 186.087 39.9112 184.891 40.5701C183.695 41.2047 182.328 41.522 180.791 41.522C178.252 41.522 176.251 40.8264 174.787 39.4352C173.347 38.0196 172.627 35.9573 172.627 33.2481V22.082H175.226V32.9918C175.226 35.0176 175.726 36.5552 176.727 37.6047C177.728 38.6542 179.168 39.179 181.047 39.179C183.073 39.179 184.671 38.5688 185.843 37.3485C187.014 36.1037 187.6 34.383 187.6 32.1864V22.082H190.2ZM181.413 19.3362C179.753 19.3362 178.436 18.9213 177.459 18.0915C176.483 17.2617 175.983 16.0901 175.958 14.5769H177.825C177.85 15.5288 178.191 16.2976 178.85 16.8834C179.509 17.4447 180.364 17.7254 181.413 17.7254C182.463 17.7254 183.317 17.4447 183.976 16.8834C184.659 16.2976 185.013 15.5288 185.038 14.5769H186.905C186.88 16.0901 186.368 17.2617 185.367 18.0915C184.391 18.9213 183.073 19.3362 181.413 19.3362ZM196.095 30.2827H205.687V32.5525H196.095V30.2827ZM235.592 21.9356C238.008 21.9356 239.899 22.6312 241.266 24.0223C242.657 25.4135 243.353 27.4637 243.353 30.1729V41.339H240.754V30.4291C240.754 28.4278 240.266 26.9023 239.289 25.8529C238.337 24.8034 236.983 24.2786 235.226 24.2786C233.224 24.2786 231.65 24.901 230.503 26.1457C229.356 27.3661 228.782 29.0623 228.782 31.2346V41.339H226.183V30.4291C226.183 28.4278 225.695 26.9023 224.718 25.8529C223.767 24.8034 222.4 24.2786 220.618 24.2786C218.641 24.2786 217.067 24.901 215.895 26.1457C214.748 27.3661 214.175 29.0623 214.175 31.2346V41.339H211.575V22.082H214.065V25.5966C214.748 24.4251 215.7 23.522 216.92 22.8874C218.141 22.2529 219.544 21.9356 221.131 21.9356C222.741 21.9356 224.133 22.2773 225.304 22.9607C226.5 23.644 227.391 24.6569 227.977 25.9993C228.684 24.7301 229.697 23.7417 231.015 23.0339C232.358 22.3017 233.883 21.9356 235.592 21.9356ZM258.096 41.522C256.241 41.522 254.57 41.1071 253.081 40.2773C251.592 39.423 250.42 38.2515 249.566 36.7627C248.712 35.2739 248.285 33.5898 248.285 31.7105C248.285 29.8312 248.712 28.1471 249.566 26.6583C250.42 25.1695 251.592 24.0101 253.081 23.1803C254.57 22.3505 256.241 21.9356 258.096 21.9356C259.951 21.9356 261.623 22.3505 263.112 23.1803C264.601 24.0101 265.76 25.1695 266.59 26.6583C267.444 28.1471 267.871 29.8312 267.871 31.7105C267.871 33.5898 267.444 35.2739 266.59 36.7627C265.76 38.2515 264.601 39.423 263.112 40.2773C261.623 41.1071 259.951 41.522 258.096 41.522ZM258.096 39.2156C259.463 39.2156 260.683 38.9105 261.757 38.3003C262.856 37.6657 263.71 36.7749 264.32 35.6278C264.93 34.4807 265.235 33.1749 265.235 31.7105C265.235 30.2461 264.93 28.9403 264.32 27.7932C263.71 26.6461 262.856 25.7674 261.757 25.1573C260.683 24.5227 259.463 24.2054 258.096 24.2054C256.73 24.2054 255.497 24.5227 254.399 25.1573C253.325 25.7674 252.471 26.6461 251.836 27.7932C251.226 28.9403 250.921 30.2461 250.921 31.7105C250.921 33.1749 251.226 34.4807 251.836 35.6278C252.471 36.7749 253.325 37.6657 254.399 38.3003C255.497 38.9105 256.73 39.2156 258.096 39.2156ZM91.7969 86.5586C89.2586 86.5586 86.9643 85.9973 84.9142 84.8746C82.8884 83.7518 81.2898 82.202 80.1182 80.2251C78.9711 78.2237 78.3976 75.9905 78.3976 73.5254C78.3976 71.0603 78.9711 68.8393 80.1182 66.8623C81.2898 64.861 82.9006 63.299 84.9508 62.1762C87.0009 61.0535 89.2952 60.4922 91.8335 60.4922C93.7372 60.4922 95.4945 60.8095 97.1054 61.444C98.7162 62.0786 100.083 63.0061 101.206 64.2264L99.485 65.9471C97.4837 63.9213 94.9576 62.9084 91.9067 62.9084C89.8809 62.9084 88.0382 63.3722 86.3786 64.2996C84.7189 65.2271 83.4132 66.4962 82.4613 68.1071C81.5338 69.7179 81.0701 71.524 81.0701 73.5254C81.0701 75.5268 81.5338 77.3329 82.4613 78.9437C83.4132 80.5546 84.7189 81.8237 86.3786 82.7512C88.0382 83.6786 89.8809 84.1423 91.9067 84.1423C94.982 84.1423 97.5081 83.1173 99.485 81.0671L101.206 82.7878C100.083 84.0081 98.704 84.9478 97.0687 85.6068C95.4579 86.2413 93.7006 86.5586 91.7969 86.5586ZM117.125 60.4922C120.444 60.4922 123.055 61.4684 124.959 63.421C126.887 65.3491 127.851 68.1437 127.851 71.8047V86.339H125.179V78.7973H109.07V86.339H106.434V71.8047C106.434 68.1437 107.386 65.3491 109.29 63.421C111.218 61.4684 113.83 60.4922 117.125 60.4922ZM125.179 76.4542V71.5485C125.179 68.6929 124.471 66.5451 123.055 65.1051C121.64 63.6407 119.663 62.9084 117.125 62.9084C114.586 62.9084 112.609 63.6407 111.194 65.1051C109.778 66.5451 109.07 68.6929 109.07 71.5485V76.4542H125.179ZM156.729 60.7118V86.339H154.129V82.019C152.445 85.0454 149.578 86.5586 145.526 86.5586C142.475 86.5586 140.083 85.6434 138.35 83.8129C136.618 81.9823 135.751 79.3708 135.751 75.9783V60.7118H138.46V75.9051C138.46 78.6142 139.119 80.6644 140.437 82.0556C141.78 83.4468 143.647 84.1423 146.039 84.1423C148.552 84.1423 150.505 83.4101 151.896 81.9457C153.312 80.4569 154.02 78.2359 154.02 75.2827V60.7118H156.729ZM146.405 58.8447C144.574 58.8447 143.122 58.4298 142.048 57.6C140.999 56.7701 140.462 55.6108 140.437 54.122H142.451C142.475 55.0983 142.841 55.8671 143.549 56.4284C144.257 56.9898 145.209 57.2705 146.405 57.2705C147.576 57.2705 148.516 56.9898 149.224 56.4284C149.956 55.8671 150.334 55.0983 150.359 54.122H152.372C152.348 55.6108 151.799 56.7701 150.725 57.6C149.651 58.4298 148.211 58.8447 146.405 58.8447ZM181.804 65.4346C179.29 63.9701 176.508 63.1281 173.457 62.9084V86.339H170.748V62.9084C167.746 63.1037 164.951 63.9457 162.364 65.4346L161.375 63.3112C164.548 61.4318 168.112 60.4922 172.066 60.4922C176.093 60.4922 179.668 61.4318 182.792 63.3112L181.804 65.4346Z" fill="black"/>
</svg>
