<svg width="355" height="164" viewBox="0 0 355 164" fill="none" xmlns="http://www.w3.org/2000/svg">
<rect x="0.00292969" width="100" height="100" fill="#C4C4C4"/>
<rect x="68.0029" y="64" width="100" height="100" fill="#EAE463"/>
<path d="M116.803 38.592H109.123V54H105.667V20.4H109.123V35.472H116.803L128.179 20.4H132.019L119.539 36.72L132.739 54H128.659L116.803 38.592ZM160.045 28.752V54H156.781V49.008C155.757 50.704 154.397 52 152.701 52.896C151.037 53.792 149.149 54.24 147.037 54.24C144.669 54.24 142.525 53.696 140.605 52.608C138.685 51.52 137.181 50 136.093 48.048C135.005 46.096 134.461 43.872 134.461 41.376C134.461 38.88 135.005 36.656 136.093 34.704C137.181 32.752 138.685 31.248 140.605 30.192C142.525 29.104 144.669 28.56 147.037 28.56C149.085 28.56 150.925 28.992 152.557 29.856C154.221 30.688 155.581 31.92 156.637 33.552V28.752H160.045ZM147.325 51.216C149.085 51.216 150.669 50.816 152.077 50.016C153.517 49.184 154.637 48.016 155.437 46.512C156.269 45.008 156.685 43.296 156.685 41.376C156.685 39.456 156.269 37.744 155.437 36.24C154.637 34.736 153.517 33.584 152.077 32.784C150.669 31.952 149.085 31.536 147.325 31.536C145.533 31.536 143.917 31.952 142.477 32.784C141.069 33.584 139.949 34.736 139.117 36.24C138.317 37.744 137.917 39.456 137.917 41.376C137.917 43.296 138.317 45.008 139.117 46.512C139.949 48.016 141.069 49.184 142.477 50.016C143.917 50.816 145.533 51.216 147.325 51.216ZM178.8 42.768H173.04V54H169.632V28.752H173.04V39.84H178.848L187.728 28.752H191.424L181.488 40.992L192.144 54H188.112L178.8 42.768ZM207.048 54.24C204.616 54.24 202.424 53.696 200.472 52.608C198.52 51.488 196.984 49.952 195.864 48C194.744 46.048 194.184 43.84 194.184 41.376C194.184 38.912 194.744 36.704 195.864 34.752C196.984 32.8 198.52 31.28 200.472 30.192C202.424 29.104 204.616 28.56 207.048 28.56C209.48 28.56 211.672 29.104 213.624 30.192C215.576 31.28 217.096 32.8 218.184 34.752C219.304 36.704 219.864 38.912 219.864 41.376C219.864 43.84 219.304 46.048 218.184 48C217.096 49.952 215.576 51.488 213.624 52.608C211.672 53.696 209.48 54.24 207.048 54.24ZM207.048 51.216C208.84 51.216 210.44 50.816 211.848 50.016C213.288 49.184 214.408 48.016 215.208 46.512C216.008 45.008 216.408 43.296 216.408 41.376C216.408 39.456 216.008 37.744 215.208 36.24C214.408 34.736 213.288 33.584 211.848 32.784C210.44 31.952 208.84 31.536 207.048 31.536C205.256 31.536 203.64 31.952 202.2 32.784C200.792 33.584 199.672 34.736 198.84 36.24C198.04 37.744 197.64 39.456 197.64 41.376C197.64 43.296 198.04 45.008 198.84 46.512C199.672 48.016 200.792 49.184 202.2 50.016C203.64 50.816 205.256 51.216 207.048 51.216ZM249.372 28.752V54H246.108V49.392C245.212 50.928 243.98 52.128 242.412 52.992C240.844 53.824 239.052 54.24 237.036 54.24C233.708 54.24 231.084 53.328 229.164 51.504C227.276 49.648 226.332 46.944 226.332 43.392V28.752H229.74V43.056C229.74 45.712 230.396 47.728 231.708 49.104C233.02 50.48 234.908 51.168 237.372 51.168C240.028 51.168 242.124 50.368 243.66 48.768C245.196 47.136 245.964 44.88 245.964 42V28.752H249.372ZM237.852 25.152C235.676 25.152 233.948 24.608 232.668 23.52C231.388 22.432 230.732 20.896 230.7 18.912H233.148C233.18 20.16 233.628 21.168 234.492 21.936C235.356 22.672 236.476 23.04 237.852 23.04C239.228 23.04 240.348 22.672 241.212 21.936C242.108 21.168 242.572 20.16 242.604 18.912H245.052C245.02 20.896 244.348 22.432 243.036 23.52C241.756 24.608 240.028 25.152 237.852 25.152ZM257.102 39.504H269.678V42.48H257.102V39.504ZM308.886 28.56C312.054 28.56 314.534 29.472 316.326 31.296C318.15 33.12 319.062 35.808 319.062 39.36V54H315.654V39.696C315.654 37.072 315.014 35.072 313.734 33.696C312.486 32.32 310.71 31.632 308.406 31.632C305.782 31.632 303.718 32.448 302.214 34.08C300.71 35.68 299.958 37.904 299.958 40.752V54H296.55V39.696C296.55 37.072 295.91 35.072 294.63 33.696C293.382 32.32 291.59 31.632 289.254 31.632C286.662 31.632 284.598 32.448 283.062 34.08C281.558 35.68 280.806 37.904 280.806 40.752V54H277.398V28.752H280.662V33.36C281.558 31.824 282.806 30.64 284.406 29.808C286.006 28.976 287.846 28.56 289.926 28.56C292.038 28.56 293.862 29.008 295.398 29.904C296.966 30.8 298.134 32.128 298.902 33.888C299.83 32.224 301.158 30.928 302.886 30C304.646 29.04 306.646 28.56 308.886 28.56ZM338.392 54.24C335.96 54.24 333.768 53.696 331.816 52.608C329.864 51.488 328.328 49.952 327.208 48C326.088 46.048 325.528 43.84 325.528 41.376C325.528 38.912 326.088 36.704 327.208 34.752C328.328 32.8 329.864 31.28 331.816 30.192C333.768 29.104 335.96 28.56 338.392 28.56C340.824 28.56 343.016 29.104 344.968 30.192C346.92 31.28 348.44 32.8 349.528 34.752C350.648 36.704 351.208 38.912 351.208 41.376C351.208 43.84 350.648 46.048 349.528 48C348.44 49.952 346.92 51.488 344.968 52.608C343.016 53.696 340.824 54.24 338.392 54.24ZM338.392 51.216C340.184 51.216 341.784 50.816 343.192 50.016C344.632 49.184 345.752 48.016 346.552 46.512C347.352 45.008 347.752 43.296 347.752 41.376C347.752 39.456 347.352 37.744 346.552 36.24C345.752 34.736 344.632 33.584 343.192 32.784C341.784 31.952 340.184 31.536 338.392 31.536C336.6 31.536 334.984 31.952 333.544 32.784C332.136 33.584 331.016 34.736 330.184 36.24C329.384 37.744 328.984 39.456 328.984 41.376C328.984 43.296 329.384 45.008 330.184 46.512C331.016 48.016 332.136 49.184 333.544 50.016C334.984 50.816 336.6 51.216 338.392 51.216ZM120.355 113.288C117.027 113.288 114.019 112.552 111.331 111.08C108.675 109.608 106.579 107.576 105.043 104.984C103.539 102.36 102.787 99.432 102.787 96.2C102.787 92.968 103.539 90.056 105.043 87.464C106.579 84.84 108.691 82.792 111.379 81.32C114.067 79.848 117.075 79.112 120.403 79.112C122.899 79.112 125.203 79.528 127.315 80.36C129.427 81.192 131.219 82.408 132.691 84.008L130.435 86.264C127.811 83.608 124.499 82.28 120.499 82.28C117.843 82.28 115.427 82.888 113.251 84.104C111.075 85.32 109.363 86.984 108.115 89.096C106.899 91.208 106.291 93.576 106.291 96.2C106.291 98.824 106.899 101.192 108.115 103.304C109.363 105.416 111.075 107.08 113.251 108.296C115.427 109.512 117.843 110.12 120.499 110.12C124.531 110.12 127.843 108.776 130.435 106.088L132.691 108.344C131.219 109.944 129.411 111.176 127.267 112.04C125.155 112.872 122.851 113.288 120.355 113.288ZM153.562 79.112C157.914 79.112 161.338 80.392 163.834 82.952C166.362 85.48 167.626 89.144 167.626 93.944V113H164.122V103.112H143.002V113H139.546V93.944C139.546 89.144 140.794 85.48 143.29 82.952C145.818 80.392 149.242 79.112 153.562 79.112ZM164.122 100.04V93.608C164.122 89.864 163.194 87.048 161.338 85.16C159.482 83.24 156.89 82.28 153.562 82.28C150.234 82.28 147.642 83.24 145.786 85.16C143.93 87.048 143.002 89.864 143.002 93.608V100.04H164.122ZM205.488 79.4V113H202.08V107.336C199.872 111.304 196.112 113.288 190.8 113.288C186.8 113.288 183.664 112.088 181.392 109.688C179.12 107.288 177.984 103.864 177.984 99.416V79.4H181.536V99.32C181.536 102.872 182.4 105.56 184.128 107.384C185.888 109.208 188.336 110.12 191.472 110.12C194.768 110.12 197.328 109.16 199.152 107.24C201.008 105.288 201.936 102.376 201.936 98.504V79.4H205.488ZM191.952 76.952C189.552 76.952 187.648 76.408 186.24 75.32C184.864 74.232 184.16 72.712 184.128 70.76H186.768C186.8 72.04 187.28 73.048 188.208 73.784C189.136 74.52 190.384 74.888 191.952 74.888C193.488 74.888 194.72 74.52 195.648 73.784C196.608 73.048 197.104 72.04 197.136 70.76H199.776C199.744 72.712 199.024 74.232 197.616 75.32C196.208 76.408 194.32 76.952 191.952 76.952ZM238.364 85.592C235.068 83.672 231.42 82.568 227.42 82.28V113H223.868V82.28C219.932 82.536 216.268 83.64 212.876 85.592L211.58 82.808C215.74 80.344 220.412 79.112 225.596 79.112C230.876 79.112 235.564 80.344 239.66 82.808L238.364 85.592Z" fill="black"/>
</svg>
